# xmcd
#
# Track frame offsets: 
#        183
#        21383
#        41333
#        61608
#        81473
#        103025
#        120208
#        137395
#
# Disc length: 2168 seconds
#
# Revision: 3
# Processed by: cddbd v1.5.2PL0 Copyright (c) Steve Scherf et al.
# Submitted via: ExactAudioCopy v0.95b4
#
DISCID=5a087608
DTITLE=이은미 - 이은미 2
DYEAR=1994
DGENRE=Ballad
TTITLE0=어떤 그리움
TTITLE1=그리움에 대하여
TTITLE2=BLUE FILTER
TTITLE3=이별이 슬프지 않을 때까지
TTITLE4=그댈 위한 이 노래
TTITLE5=흐려진 기억들
TTITLE6=언젠가 너에게
TTITLE7=거리에 뿌린 추억
EXTD=
EXTT0=
EXTT1=
EXTT2=
EXTT3=
EXTT4=
EXTT5=
EXTT6=
EXTT7=
PLAYORDER=
